# xmcd
#
# Track frame offsets:
#	152
#	13290
#	25772
#	35750
#	46832
#	59182
#	71507
#	83015
#	94560
#	107707
#	120230
#	132637
#
# Disc length: 1918 seconds
#
# Revision: 2
# Processed by: cddbd v1.5.1PL2 Copyright (c) Steve Scherf et al.
# Submitted via: dBpowerAMP V4.0
#
DISCID=a0077c0c
DTITLE=Hank Williams - Honky Tonkin'
DYEAR=1957
DGENRE=Country
TTITLE0=Jambalaya (On The Bayou)
TTITLE1=I Won't Be Home No More
TTITLE2=Honky Tonk Blues
TTITLE3=I'll Never Get Out Of This World Alive
TTITLE4=Honky Tonkin'
TTITLE5=Howlin' At The Moon
TTITLE6=My Bucket's Got A Hole In It
TTITLE7=Baby, We're Really In Love
TTITLE8=Mind Your Own Business
TTITLE9=Rootie Tootie
TTITLE10=I Ain't Got Nothin' But Time
TTITLE11=You Better Keep It On Your Mind
EXTD=Mercury 314-534 072-2\noriginally released at MGM E3412 (1957]\n(c) 1957, 1959, 1996
EXTT0=
EXTT1=
EXTT2=
EXTT3=
EXTT4=
EXTT5=
EXTT6=
EXTT7=
EXTT8=
EXTT9=
EXTT10=
EXTT11=
PLAYORDER=
